<?xml version="1.0"?>
<svg xmlns="http://www.w3.org/2000/svg" xmlns:xlink="http://www.w3.org/1999/xlink" xmlns:svgjs="http://svgjs.com/svgjs" version="1.1" width="512" height="512" x="0" y="0" viewBox="0 0 64 64" style="enable-background:new 0 0 512 512" xml:space="preserve" class=""><g><path xmlns="http://www.w3.org/2000/svg" d="m32 8c-13.234 0-24 10.766-24 24 0 13.233 10.766 24 24 24s24-10.767 24-24c0-13.234-10.766-24-24-24zm0 44c-11.028 0-20-8.972-20-20s8.972-20 20-20 20 8.972 20 20-8.972 20-20 20z" fill="#fafafa" data-original="#000000" style="" class=""/><path xmlns="http://www.w3.org/2000/svg" d="m39 25c-2.476 0-5.232 2.284-7 4.055-1.768-1.771-4.524-4.055-7-4.055-3.86 0-7 3.14-7 7 0 3.859 3.14 7 7 7 2.476 0 5.232-2.284 7-4.055 1.768 1.771 4.524 4.055 7 4.055 3.86 0 7-3.141 7-7 0-3.86-3.14-7-7-7zm-14 10c-1.654 0-3-1.346-3-3s1.346-3 3-3c.824 0 2.683 1.411 4.276 3.001-1.59 1.59-3.448 2.999-4.276 2.999zm14 0c-.824 0-2.683-1.41-4.276-3.001 1.59-1.59 3.448-2.999 4.276-2.999 1.654 0 3 1.346 3 3s-1.346 3-3 3z" fill="#fafafa" data-original="#000000" style="" class=""/></g></svg>
